<svg xmlns="http://www.w3.org/2000/svg" viewBox="0 0 620 198" role="img" aria-label="AI Video Systems wordmark white">
  <title>AI Video Systems wordmark white</title>
  <path fill="#FFFFFF" fill-rule="evenodd" d="M 425.00 119.00 L 425.00 190.00 L 440.00 190.00 L 440.00 154.00 L 441.00 153.00 L 441.00 145.00 L 440.00 143.00 L 441.00 142.00 L 443.00 143.00 L 446.00 150.00 L 448.00 152.00 L 459.00 174.00 L 461.00 176.00 L 467.00 189.00 L 468.00 190.00 L 479.00 190.00 L 490.00 167.00 L 492.00 165.00 L 502.00 144.00 L 505.00 140.00 L 506.00 141.00 L 506.00 190.00 L 522.00 190.00 L 522.00 119.00 L 500.00 119.00 L 495.00 129.00 L 493.00 131.00 L 487.00 144.00 L 485.00 146.00 L 479.00 159.00 L 477.00 161.00 L 475.00 166.00 L 473.00 168.00 L 470.00 164.00 L 467.00 157.00 L 465.00 155.00 L 459.00 142.00 L 457.00 140.00 L 447.00 120.00 L 446.00 119.00 Z M 345.00 119.00 L 345.00 190.00 L 411.00 190.00 L 411.00 177.00 L 362.00 177.00 L 361.00 176.00 L 361.00 161.00 L 362.00 160.00 L 405.00 160.00 L 406.00 159.00 L 406.00 148.00 L 405.00 147.00 L 362.00 147.00 L 361.00 146.00 L 361.00 134.00 L 362.00 133.00 L 410.00 133.00 L 411.00 132.00 L 411.00 119.00 Z M 261.00 119.00 L 261.00 133.00 L 288.00 133.00 L 289.00 134.00 L 289.00 190.00 L 305.00 190.00 L 305.00 134.00 L 306.00 133.00 L 334.00 133.00 L 334.00 119.00 Z M 86.00 119.00 L 120.00 165.00 L 120.00 190.00 L 136.00 190.00 L 136.00 166.00 L 139.00 163.00 L 139.00 162.00 L 142.00 159.00 L 142.00 158.00 L 172.00 119.00 L 153.00 119.00 L 150.00 122.00 L 145.00 130.00 L 142.00 133.00 L 142.00 134.00 L 139.00 137.00 L 139.00 138.00 L 129.00 151.00 L 123.00 144.00 L 117.00 134.00 L 114.00 131.00 L 114.00 130.00 L 106.00 119.00 Z M 545.00 123.00 L 539.00 129.00 L 537.00 133.00 L 537.00 146.00 L 539.00 150.00 L 543.00 154.00 L 549.00 157.00 L 552.00 157.00 L 553.00 158.00 L 556.00 158.00 L 557.00 159.00 L 564.00 159.00 L 565.00 160.00 L 575.00 160.00 L 576.00 161.00 L 583.00 161.00 L 584.00 162.00 L 589.00 162.00 L 590.00 163.00 L 592.00 163.00 L 596.00 168.00 L 596.00 172.00 L 595.00 174.00 L 590.00 178.00 L 585.00 178.00 L 584.00 179.00 L 566.00 179.00 L 565.00 178.00 L 560.00 178.00 L 556.00 176.00 L 553.00 173.00 L 552.00 169.00 L 536.00 169.00 L 536.00 176.00 L 537.00 177.00 L 537.00 179.00 L 542.00 185.00 L 550.00 189.00 L 553.00 189.00 L 554.00 190.00 L 561.00 190.00 L 562.00 191.00 L 586.00 191.00 L 587.00 190.00 L 594.00 190.00 L 595.00 189.00 L 601.00 188.00 L 605.00 186.00 L 610.00 181.00 L 613.00 174.00 L 613.00 166.00 L 612.00 165.00 L 612.00 162.00 L 610.00 158.00 L 607.00 155.00 L 602.00 152.00 L 596.00 151.00 L 595.00 150.00 L 591.00 150.00 L 590.00 149.00 L 584.00 149.00 L 583.00 148.00 L 574.00 148.00 L 573.00 147.00 L 565.00 147.00 L 564.00 146.00 L 560.00 146.00 L 559.00 145.00 L 557.00 145.00 L 553.00 140.00 L 553.00 137.00 L 559.00 132.00 L 562.00 132.00 L 563.00 131.00 L 584.00 131.00 L 585.00 132.00 L 588.00 132.00 L 592.00 134.00 L 595.00 138.00 L 595.00 141.00 L 611.00 141.00 L 610.00 133.00 L 609.00 132.00 L 609.00 130.00 L 606.00 127.00 L 606.00 126.00 L 598.00 121.00 L 595.00 121.00 L 594.00 120.00 L 591.00 120.00 L 590.00 119.00 L 578.00 119.00 L 577.00 118.00 L 570.00 118.00 L 569.00 119.00 L 557.00 119.00 L 556.00 120.00 L 549.00 121.00 Z M 178.00 129.00 L 177.00 133.00 L 176.00 134.00 L 176.00 145.00 L 179.00 151.00 L 184.00 155.00 L 188.00 156.00 L 189.00 157.00 L 192.00 157.00 L 193.00 158.00 L 197.00 158.00 L 198.00 159.00 L 205.00 159.00 L 206.00 160.00 L 215.00 160.00 L 216.00 161.00 L 229.00 162.00 L 230.00 163.00 L 232.00 163.00 L 236.00 167.00 L 236.00 172.00 L 235.00 174.00 L 232.00 177.00 L 230.00 178.00 L 226.00 178.00 L 225.00 179.00 L 203.00 179.00 L 202.00 178.00 L 199.00 178.00 L 195.00 176.00 L 192.00 173.00 L 191.00 169.00 L 175.00 169.00 L 176.00 177.00 L 178.00 181.00 L 183.00 186.00 L 190.00 189.00 L 193.00 189.00 L 194.00 190.00 L 200.00 190.00 L 201.00 191.00 L 226.00 191.00 L 227.00 190.00 L 234.00 190.00 L 235.00 189.00 L 243.00 187.00 L 250.00 181.00 L 252.00 177.00 L 252.00 174.00 L 253.00 173.00 L 253.00 167.00 L 252.00 166.00 L 251.00 160.00 L 244.00 153.00 L 240.00 152.00 L 239.00 151.00 L 236.00 151.00 L 235.00 150.00 L 231.00 150.00 L 230.00 149.00 L 214.00 148.00 L 213.00 147.00 L 204.00 147.00 L 203.00 146.00 L 197.00 145.00 L 193.00 141.00 L 193.00 137.00 L 194.00 135.00 L 202.00 131.00 L 224.00 131.00 L 225.00 132.00 L 229.00 132.00 L 234.00 136.00 L 235.00 138.00 L 235.00 141.00 L 251.00 141.00 L 251.00 136.00 L 250.00 135.00 L 250.00 132.00 L 245.00 125.00 L 238.00 121.00 L 232.00 120.00 L 231.00 119.00 L 207.00 118.00 L 206.00 119.00 L 196.00 119.00 L 195.00 120.00 L 192.00 120.00 L 191.00 121.00 L 186.00 122.00 Z M 8.00 129.00 L 7.00 133.00 L 6.00 134.00 L 6.00 144.00 L 7.00 145.00 L 8.00 149.00 L 13.00 154.00 L 17.00 156.00 L 22.00 157.00 L 23.00 158.00 L 26.00 158.00 L 27.00 159.00 L 43.00 160.00 L 44.00 161.00 L 52.00 161.00 L 53.00 162.00 L 58.00 162.00 L 59.00 163.00 L 62.00 163.00 L 64.00 164.00 L 67.00 168.00 L 66.00 174.00 L 64.00 176.00 L 60.00 178.00 L 56.00 178.00 L 55.00 179.00 L 36.00 179.00 L 35.00 178.00 L 30.00 178.00 L 24.00 175.00 L 21.00 169.00 L 5.00 169.00 L 6.00 177.00 L 8.00 181.00 L 13.00 186.00 L 17.00 188.00 L 22.00 189.00 L 23.00 190.00 L 31.00 190.00 L 32.00 191.00 L 56.00 191.00 L 57.00 190.00 L 64.00 190.00 L 65.00 189.00 L 71.00 188.00 L 75.00 186.00 L 81.00 180.00 L 82.00 176.00 L 83.00 175.00 L 83.00 164.00 L 82.00 163.00 L 81.00 159.00 L 76.00 154.00 L 69.00 151.00 L 61.00 150.00 L 60.00 149.00 L 53.00 149.00 L 52.00 148.00 L 43.00 148.00 L 42.00 147.00 L 35.00 147.00 L 34.00 146.00 L 30.00 146.00 L 29.00 145.00 L 27.00 145.00 L 23.00 141.00 L 23.00 137.00 L 24.00 135.00 L 29.00 132.00 L 32.00 132.00 L 33.00 131.00 L 54.00 131.00 L 55.00 132.00 L 61.00 133.00 L 65.00 137.00 L 66.00 141.00 L 81.00 141.00 L 81.00 134.00 L 80.00 133.00 L 80.00 131.00 L 74.00 124.00 L 73.00 124.00 L 71.00 122.00 L 69.00 122.00 L 65.00 120.00 L 62.00 120.00 L 61.00 119.00 L 52.00 119.00 L 51.00 118.00 L 37.00 118.00 L 36.00 119.00 L 26.00 119.00 L 25.00 120.00 L 22.00 120.00 L 21.00 121.00 L 16.00 122.00 Z M 435.00 6.00 L 435.00 86.00 L 505.00 86.00 L 505.00 72.00 L 453.00 72.00 L 452.00 71.00 L 452.00 53.00 L 453.00 52.00 L 501.00 52.00 L 501.00 39.00 L 453.00 39.00 L 452.00 38.00 L 452.00 21.00 L 453.00 20.00 L 505.00 20.00 L 505.00 6.00 Z M 332.00 7.00 L 332.00 86.00 L 390.00 86.00 L 391.00 85.00 L 396.00 85.00 L 397.00 84.00 L 402.00 83.00 L 408.00 80.00 L 413.00 75.00 L 417.00 68.00 L 417.00 66.00 L 418.00 65.00 L 418.00 61.00 L 419.00 60.00 L 419.00 33.00 L 418.00 32.00 L 418.00 28.00 L 417.00 27.00 L 417.00 25.00 L 414.00 19.00 L 407.00 12.00 L 398.00 8.00 L 395.00 8.00 L 394.00 7.00 L 385.00 7.00 L 384.00 6.00 L 333.00 6.00 Z M 349.00 22.00 L 351.00 20.00 L 380.00 20.00 L 381.00 21.00 L 387.00 21.00 L 388.00 22.00 L 391.00 22.00 L 393.00 23.00 L 399.00 29.00 L 400.00 33.00 L 401.00 34.00 L 401.00 58.00 L 400.00 59.00 L 400.00 62.00 L 399.00 64.00 L 394.00 69.00 L 390.00 71.00 L 385.00 71.00 L 384.00 72.00 L 351.00 72.00 L 349.00 70.00 L 349.00 67.00 L 350.00 66.00 L 350.00 63.00 L 349.00 62.00 L 349.00 24.00 L 350.00 23.00 Z M 296.00 6.00 L 295.00 7.00 L 295.00 86.00 L 313.00 86.00 L 313.00 6.00 Z M 182.00 6.00 L 222.00 86.00 L 243.00 86.00 L 265.00 41.00 L 267.00 39.00 L 283.00 7.00 L 283.00 6.00 L 264.00 6.00 L 263.00 7.00 L 248.00 37.00 L 248.00 39.00 L 244.00 47.00 L 242.00 49.00 L 242.00 51.00 L 234.00 67.00 L 232.00 68.00 L 219.00 43.00 L 219.00 41.00 L 202.00 7.00 L 201.00 6.00 Z M 118.00 6.00 L 118.00 86.00 L 136.00 86.00 L 136.00 7.00 L 135.00 6.00 Z M 45.00 6.00 L 13.00 70.00 L 13.00 72.00 L 11.00 74.00 L 9.00 78.00 L 9.00 80.00 L 6.00 86.00 L 25.00 86.00 L 34.00 67.00 L 78.00 67.00 L 80.00 69.00 L 83.00 75.00 L 83.00 77.00 L 87.00 84.00 L 87.00 86.00 L 107.00 86.00 L 90.00 52.00 L 90.00 50.00 L 77.00 25.00 L 77.00 23.00 L 69.00 7.00 L 68.00 6.00 Z M 56.00 21.00 L 58.00 22.00 L 58.00 24.00 L 71.00 50.00 L 71.00 52.00 L 70.00 53.00 L 42.00 53.00 L 41.00 52.00 L 48.00 38.00 L 48.00 36.00 L 50.00 34.00 L 50.00 32.00 Z M 524.00 18.00 L 524.00 19.00 L 522.00 21.00 L 522.00 23.00 L 520.00 27.00 L 520.00 31.00 L 519.00 32.00 L 519.00 60.00 L 520.00 61.00 L 520.00 65.00 L 521.00 66.00 L 522.00 71.00 L 529.00 80.00 L 532.00 81.00 L 534.00 83.00 L 536.00 83.00 L 540.00 85.00 L 543.00 85.00 L 544.00 86.00 L 551.00 86.00 L 552.00 87.00 L 578.00 87.00 L 579.00 86.00 L 587.00 86.00 L 588.00 85.00 L 592.00 85.00 L 593.00 84.00 L 595.00 84.00 L 601.00 81.00 L 606.00 77.00 L 610.00 70.00 L 610.00 68.00 L 612.00 64.00 L 612.00 59.00 L 613.00 58.00 L 613.00 35.00 L 612.00 34.00 L 612.00 28.00 L 611.00 27.00 L 610.00 22.00 L 607.00 17.00 L 602.00 12.00 L 597.00 9.00 L 595.00 9.00 L 591.00 7.00 L 586.00 7.00 L 585.00 6.00 L 576.00 6.00 L 575.00 5.00 L 557.00 5.00 L 556.00 6.00 L 547.00 6.00 L 546.00 7.00 L 541.00 7.00 L 540.00 8.00 L 538.00 8.00 L 530.00 12.00 Z M 539.00 28.00 L 545.00 22.00 L 547.00 21.00 L 550.00 21.00 L 551.00 20.00 L 581.00 20.00 L 582.00 21.00 L 585.00 21.00 L 587.00 22.00 L 593.00 28.00 L 593.00 30.00 L 595.00 34.00 L 595.00 58.00 L 594.00 59.00 L 594.00 62.00 L 592.00 66.00 L 586.00 71.00 L 584.00 71.00 L 583.00 72.00 L 579.00 72.00 L 578.00 73.00 L 555.00 73.00 L 554.00 72.00 L 549.00 72.00 L 548.00 71.00 L 544.00 70.00 L 539.00 65.00 L 538.00 61.00 L 537.00 60.00 L 537.00 33.00 L 538.00 32.00 Z"/>
</svg>
