<svg xmlns="http://www.w3.org/2000/svg" viewBox="0 0 599 623" role="img" aria-label="AI Video Systems symbol">
  <title>AI Video Systems symbol</title>
  <path fill="#0B0B0D" fill-rule="evenodd" d="M 439.00 176.00 L 431.00 188.00 L 337.00 357.00 L 418.00 357.00 L 480.00 473.00 L 595.00 473.00 L 596.00 474.00 L 597.00 472.00 L 459.00 210.00 L 442.00 176.00 Z M 361.00 0.00 L 357.00 2.00 L 302.00 99.00 L 238.00 207.00 L 198.00 278.00 L 0.00 619.00 L 2.00 622.00 L 5.00 622.00 L 40.00 602.00 L 403.00 403.00 L 357.00 403.00 L 356.00 402.00 L 298.00 403.00 L 297.00 402.00 L 238.00 402.00 L 237.00 401.00 L 321.00 253.00 L 410.00 92.00 L 410.00 90.00 L 391.00 57.00 Z"/>
  <circle cx="512.50" cy="141.50" r="41.50" fill="#FF1F1F"/>
</svg>
