<svg xmlns="http://www.w3.org/2000/svg" viewBox="0 0 1024 353" role="img" aria-label="AI Video Systems full logo white">
  <title>AI Video Systems full logo white</title>
  <path fill="#FFFFFF" fill-rule="evenodd" d="M 834.00 188.00 L 834.00 259.00 L 849.00 259.00 L 849.00 223.00 L 850.00 222.00 L 849.00 212.00 L 850.00 211.00 L 852.00 212.00 L 876.00 258.00 L 877.00 259.00 L 888.00 259.00 L 899.00 236.00 L 914.00 209.00 L 915.00 210.00 L 915.00 259.00 L 931.00 259.00 L 931.00 188.00 L 909.00 188.00 L 888.00 228.00 L 882.00 237.00 L 874.00 224.00 L 855.00 188.00 Z M 754.00 188.00 L 754.00 259.00 L 820.00 259.00 L 820.00 246.00 L 771.00 246.00 L 770.00 245.00 L 770.00 230.00 L 771.00 229.00 L 814.00 229.00 L 815.00 228.00 L 815.00 217.00 L 814.00 216.00 L 771.00 216.00 L 770.00 215.00 L 770.00 203.00 L 771.00 202.00 L 819.00 202.00 L 820.00 201.00 L 820.00 188.00 Z M 670.00 188.00 L 670.00 202.00 L 697.00 202.00 L 698.00 203.00 L 698.00 259.00 L 714.00 259.00 L 714.00 203.00 L 715.00 202.00 L 743.00 202.00 L 743.00 188.00 Z M 495.00 188.00 L 529.00 234.00 L 529.00 259.00 L 545.00 259.00 L 545.00 235.00 L 581.00 188.00 L 562.00 188.00 L 538.00 220.00 L 515.00 188.00 Z M 954.00 192.00 L 948.00 198.00 L 946.00 202.00 L 946.00 215.00 L 952.00 223.00 L 958.00 226.00 L 966.00 228.00 L 984.00 229.00 L 985.00 230.00 L 992.00 230.00 L 1001.00 232.00 L 1005.00 237.00 L 1005.00 241.00 L 999.00 247.00 L 975.00 248.00 L 965.00 245.00 L 962.00 242.00 L 961.00 238.00 L 945.00 238.00 L 946.00 248.00 L 951.00 254.00 L 963.00 259.00 L 995.00 260.00 L 1010.00 257.00 L 1014.00 255.00 L 1019.00 250.00 L 1022.00 243.00 L 1022.00 235.00 L 1019.00 227.00 L 1016.00 224.00 L 1011.00 221.00 L 999.00 218.00 L 969.00 215.00 L 966.00 214.00 L 962.00 209.00 L 962.00 206.00 L 968.00 201.00 L 972.00 200.00 L 993.00 200.00 L 1001.00 203.00 L 1004.00 207.00 L 1004.00 210.00 L 1020.00 210.00 L 1019.00 202.00 L 1015.00 195.00 L 1007.00 190.00 L 999.00 188.00 L 987.00 188.00 L 986.00 187.00 L 966.00 188.00 Z M 587.00 198.00 L 585.00 203.00 L 585.00 214.00 L 588.00 220.00 L 593.00 224.00 L 607.00 228.00 L 638.00 231.00 L 641.00 232.00 L 645.00 236.00 L 644.00 243.00 L 641.00 246.00 L 634.00 248.00 L 612.00 248.00 L 604.00 245.00 L 601.00 242.00 L 600.00 238.00 L 584.00 238.00 L 585.00 246.00 L 587.00 250.00 L 592.00 255.00 L 599.00 258.00 L 609.00 259.00 L 610.00 260.00 L 635.00 260.00 L 636.00 259.00 L 643.00 259.00 L 652.00 256.00 L 659.00 250.00 L 662.00 242.00 L 662.00 236.00 L 660.00 229.00 L 653.00 222.00 L 639.00 218.00 L 613.00 216.00 L 606.00 214.00 L 602.00 210.00 L 603.00 204.00 L 611.00 200.00 L 633.00 200.00 L 638.00 201.00 L 643.00 205.00 L 644.00 210.00 L 660.00 210.00 L 659.00 201.00 L 654.00 194.00 L 647.00 190.00 L 640.00 188.00 L 616.00 187.00 L 615.00 188.00 L 605.00 188.00 L 595.00 191.00 Z M 417.00 198.00 L 415.00 203.00 L 415.00 213.00 L 417.00 218.00 L 422.00 223.00 L 436.00 228.00 L 461.00 230.00 L 471.00 232.00 L 476.00 237.00 L 475.00 243.00 L 473.00 245.00 L 464.00 248.00 L 439.00 247.00 L 433.00 244.00 L 430.00 238.00 L 414.00 238.00 L 415.00 246.00 L 417.00 250.00 L 422.00 255.00 L 432.00 259.00 L 465.00 260.00 L 480.00 257.00 L 484.00 255.00 L 490.00 249.00 L 492.00 244.00 L 492.00 233.00 L 490.00 228.00 L 485.00 223.00 L 469.00 218.00 L 439.00 215.00 L 436.00 214.00 L 432.00 210.00 L 433.00 204.00 L 442.00 200.00 L 463.00 200.00 L 470.00 202.00 L 474.00 206.00 L 475.00 210.00 L 490.00 210.00 L 489.00 200.00 L 483.00 193.00 L 470.00 188.00 L 446.00 187.00 L 445.00 188.00 L 435.00 188.00 L 425.00 191.00 Z M 249.00 100.00 L 191.00 202.00 L 192.00 203.00 L 235.00 203.00 L 236.00 202.00 L 241.00 208.00 L 253.00 232.00 L 274.00 269.00 L 338.00 269.00 L 339.00 268.00 L 306.00 204.00 L 279.00 155.00 L 252.00 102.00 Z M 844.00 75.00 L 844.00 155.00 L 914.00 155.00 L 914.00 141.00 L 862.00 141.00 L 861.00 140.00 L 861.00 122.00 L 862.00 121.00 L 910.00 121.00 L 910.00 108.00 L 862.00 108.00 L 861.00 107.00 L 861.00 90.00 L 862.00 89.00 L 914.00 89.00 L 914.00 75.00 Z M 741.00 76.00 L 741.00 155.00 L 799.00 155.00 L 811.00 152.00 L 817.00 149.00 L 822.00 144.00 L 826.00 137.00 L 828.00 129.00 L 828.00 102.00 L 826.00 94.00 L 823.00 88.00 L 816.00 81.00 L 807.00 77.00 L 794.00 76.00 L 793.00 75.00 L 742.00 75.00 Z M 758.00 91.00 L 760.00 89.00 L 789.00 89.00 L 802.00 92.00 L 808.00 98.00 L 810.00 103.00 L 810.00 127.00 L 808.00 133.00 L 803.00 138.00 L 799.00 140.00 L 794.00 140.00 L 793.00 141.00 L 760.00 141.00 L 758.00 139.00 L 759.00 135.00 L 758.00 131.00 L 758.00 93.00 L 759.00 92.00 Z M 705.00 75.00 L 704.00 76.00 L 704.00 155.00 L 722.00 155.00 L 722.00 75.00 Z M 591.00 75.00 L 631.00 155.00 L 652.00 155.00 L 692.00 75.00 L 673.00 75.00 L 643.00 136.00 L 641.00 137.00 L 610.00 75.00 Z M 527.00 75.00 L 527.00 155.00 L 545.00 155.00 L 545.00 76.00 L 544.00 75.00 Z M 454.00 75.00 L 422.00 139.00 L 422.00 141.00 L 418.00 147.00 L 415.00 155.00 L 434.00 155.00 L 443.00 136.00 L 487.00 136.00 L 492.00 144.00 L 496.00 155.00 L 516.00 155.00 L 477.00 75.00 Z M 465.00 90.00 L 467.00 91.00 L 467.00 93.00 L 480.00 119.00 L 479.00 122.00 L 451.00 122.00 L 450.00 121.00 Z M 931.00 90.00 L 928.00 101.00 L 928.00 129.00 L 931.00 140.00 L 938.00 149.00 L 943.00 152.00 L 953.00 155.00 L 987.00 156.00 L 988.00 155.00 L 996.00 155.00 L 1004.00 153.00 L 1015.00 146.00 L 1021.00 133.00 L 1022.00 104.00 L 1019.00 91.00 L 1011.00 81.00 L 1006.00 78.00 L 994.00 75.00 L 966.00 74.00 L 965.00 75.00 L 956.00 75.00 L 947.00 77.00 L 939.00 81.00 Z M 948.00 97.00 L 954.00 91.00 L 960.00 89.00 L 990.00 89.00 L 996.00 91.00 L 1002.00 97.00 L 1004.00 103.00 L 1004.00 127.00 L 1001.00 135.00 L 995.00 140.00 L 987.00 142.00 L 964.00 142.00 L 953.00 139.00 L 948.00 134.00 L 946.00 129.00 L 946.00 102.00 Z M 204.00 0.00 L 202.00 1.00 L 115.00 153.00 L 15.00 323.00 L 5.00 342.00 L 0.00 349.00 L 0.00 352.00 L 10.00 348.00 L 228.00 229.00 L 135.00 229.00 L 134.00 228.00 L 232.00 52.00 L 228.00 42.00 Z"/>
  <path fill="#FF1F1F" fill-rule="evenodd" d="M 134.00 311.00 L 1023.00 311.00 L 1023.00 297.00 L 156.00 297.00 Z M 278.00 60.00 L 271.00 67.00 L 268.00 74.00 L 268.00 86.00 L 271.00 93.00 L 277.00 99.00 L 283.00 102.00 L 295.00 103.00 L 302.00 101.00 L 311.00 93.00 L 314.00 87.00 L 315.00 77.00 L 312.00 68.00 L 306.00 61.00 L 301.00 58.00 L 298.00 58.00 L 297.00 57.00 L 285.00 57.00 Z"/>
</svg>
